<svg width="300" height="600" viewBox="0 0 300 600" fill="none" xmlns="http://www.w3.org/2000/svg">
<g clip-path="url(#clip0_4060_521)">
<mask id="path-1-inside-1_4060_521" fill="white">
<path fill-rule="evenodd" clip-rule="evenodd" d="M300 24.2433C300 21.7558 297.488 20 295 20V20C286.716 20 280 13.2843 280 5V5C280 2.51247 278.244 0 275.757 0H24.2433C21.7558 0 20 2.51246 20 5V5C20 13.2843 13.2843 20 5 20V20C2.51246 20 0 21.7558 0 24.2433V468.757C0 471.244 2.51247 473 5 473V473C13.2843 473 20 479.716 20 488C20 496.284 13.2843 503 5 503V503C2.51247 503 0 504.756 0 507.243V575.757C0 578.244 2.51245 580 5 580V580C13.2843 580 20 586.716 20 595V595C20 597.488 21.7558 600 24.2433 600H275.757C278.244 600 280 597.488 280 595V595C280 586.716 286.716 580 295 580V580C297.488 580 300 578.244 300 575.757V507.243C300 504.756 297.488 503 295 503V503C286.716 503 280 496.284 280 488C280 479.716 286.716 473 295 473V473C297.488 473 300 471.244 300 468.757V24.2433ZM280 487C280 487.552 279.552 488 279 488H273C272.448 488 272 487.552 272 487C272 486.448 272.448 486 273 486H279C279.552 486 280 486.448 280 487ZM267 488C267.552 488 268 487.552 268 487C268 486.448 267.552 486 267 486H261C260.448 486 260 486.448 260 487C260 487.552 260.448 488 261 488H267ZM256 487C256 487.552 255.552 488 255 488H249C248.448 488 248 487.552 248 487C248 486.448 248.448 486 249 486H255C255.552 486 256 486.448 256 487ZM243 488C243.552 488 244 487.552 244 487C244 486.448 243.552 486 243 486H237C236.448 486 236 486.448 236 487C236 487.552 236.448 488 237 488H243ZM232 487C232 487.552 231.552 488 231 488H225C224.448 488 224 487.552 224 487C224 486.448 224.448 486 225 486H231C231.552 486 232 486.448 232 487ZM219 488C219.552 488 220 487.552 220 487C220 486.448 219.552 486 219 486H213C212.448 486 212 486.448 212 487C212 487.552 212.448 488 213 488H219ZM208 487C208 487.552 207.552 488 207 488H201C200.448 488 200 487.552 200 487C200 486.448 200.448 486 201 486H207C207.552 486 208 486.448 208 487ZM195 488C195.552 488 196 487.552 196 487C196 486.448 195.552 486 195 486H189C188.448 486 188 486.448 188 487C188 487.552 188.448 488 189 488H195ZM184 487C184 487.552 183.552 488 183 488H177C176.448 488 176 487.552 176 487C176 486.448 176.448 486 177 486H183C183.552 486 184 486.448 184 487ZM171 488C171.552 488 172 487.552 172 487C172 486.448 171.552 486 171 486H165C164.448 486 164 486.448 164 487C164 487.552 164.448 488 165 488H171ZM160 487C160 487.552 159.552 488 159 488H153C152.448 488 152 487.552 152 487C152 486.448 152.448 486 153 486H159C159.552 486 160 486.448 160 487ZM147 488C147.552 488 148 487.552 148 487C148 486.448 147.552 486 147 486H141C140.448 486 140 486.448 140 487C140 487.552 140.448 488 141 488H147ZM136 487C136 487.552 135.552 488 135 488H129C128.448 488 128 487.552 128 487C128 486.448 128.448 486 129 486H135C135.552 486 136 486.448 136 487ZM123 488C123.552 488 124 487.552 124 487C124 486.448 123.552 486 123 486H117C116.448 486 116 486.448 116 487C116 487.552 116.448 488 117 488H123ZM112 487C112 487.552 111.552 488 111 488H105C104.448 488 104 487.552 104 487C104 486.448 104.448 486 105 486H111C111.552 486 112 486.448 112 487ZM99 488C99.5523 488 100 487.552 100 487C100 486.448 99.5523 486 99 486H93C92.4477 486 92 486.448 92 487C92 487.552 92.4477 488 93 488H99ZM88 487C88 487.552 87.5523 488 87 488H81C80.4477 488 80 487.552 80 487C80 486.448 80.4477 486 81 486H87C87.5523 486 88 486.448 88 487ZM75 488C75.5523 488 76 487.552 76 487C76 486.448 75.5523 486 75 486H69C68.4477 486 68 486.448 68 487C68 487.552 68.4477 488 69 488H75ZM64 487C64 487.552 63.5523 488 63 488H57C56.4477 488 56 487.552 56 487C56 486.448 56.4477 486 57 486H63C63.5523 486 64 486.448 64 487ZM51 488C51.5523 488 52 487.552 52 487C52 486.448 51.5523 486 51 486H45C44.4477 486 44 486.448 44 487C44 487.552 44.4477 488 45 488H51ZM40 487C40 487.552 39.5523 488 39 488H33C32.4477 488 32 487.552 32 487C32 486.448 32.4477 486 33 486H39C39.5523 486 40 486.448 40 487ZM27 488C27.5523 488 28 487.552 28 487C28 486.448 27.5523 486 27 486H21C20.4477 486 20 486.448 20 487C20 487.552 20.4477 488 21 488H27Z"/>
</mask>
<path fill-rule="evenodd" clip-rule="evenodd" d="M300 24.2433C300 21.7558 297.488 20 295 20V20C286.716 20 280 13.2843 280 5V5C280 2.51247 278.244 0 275.757 0H24.2433C21.7558 0 20 2.51246 20 5V5C20 13.2843 13.2843 20 5 20V20C2.51246 20 0 21.7558 0 24.2433V468.757C0 471.244 2.51247 473 5 473V473C13.2843 473 20 479.716 20 488C20 496.284 13.2843 503 5 503V503C2.51247 503 0 504.756 0 507.243V575.757C0 578.244 2.51245 580 5 580V580C13.2843 580 20 586.716 20 595V595C20 597.488 21.7558 600 24.2433 600H275.757C278.244 600 280 597.488 280 595V595C280 586.716 286.716 580 295 580V580C297.488 580 300 578.244 300 575.757V507.243C300 504.756 297.488 503 295 503V503C286.716 503 280 496.284 280 488C280 479.716 286.716 473 295 473V473C297.488 473 300 471.244 300 468.757V24.2433ZM280 487C280 487.552 279.552 488 279 488H273C272.448 488 272 487.552 272 487C272 486.448 272.448 486 273 486H279C279.552 486 280 486.448 280 487ZM267 488C267.552 488 268 487.552 268 487C268 486.448 267.552 486 267 486H261C260.448 486 260 486.448 260 487C260 487.552 260.448 488 261 488H267ZM256 487C256 487.552 255.552 488 255 488H249C248.448 488 248 487.552 248 487C248 486.448 248.448 486 249 486H255C255.552 486 256 486.448 256 487ZM243 488C243.552 488 244 487.552 244 487C244 486.448 243.552 486 243 486H237C236.448 486 236 486.448 236 487C236 487.552 236.448 488 237 488H243ZM232 487C232 487.552 231.552 488 231 488H225C224.448 488 224 487.552 224 487C224 486.448 224.448 486 225 486H231C231.552 486 232 486.448 232 487ZM219 488C219.552 488 220 487.552 220 487C220 486.448 219.552 486 219 486H213C212.448 486 212 486.448 212 487C212 487.552 212.448 488 213 488H219ZM208 487C208 487.552 207.552 488 207 488H201C200.448 488 200 487.552 200 487C200 486.448 200.448 486 201 486H207C207.552 486 208 486.448 208 487ZM195 488C195.552 488 196 487.552 196 487C196 486.448 195.552 486 195 486H189C188.448 486 188 486.448 188 487C188 487.552 188.448 488 189 488H195ZM184 487C184 487.552 183.552 488 183 488H177C176.448 488 176 487.552 176 487C176 486.448 176.448 486 177 486H183C183.552 486 184 486.448 184 487ZM171 488C171.552 488 172 487.552 172 487C172 486.448 171.552 486 171 486H165C164.448 486 164 486.448 164 487C164 487.552 164.448 488 165 488H171ZM160 487C160 487.552 159.552 488 159 488H153C152.448 488 152 487.552 152 487C152 486.448 152.448 486 153 486H159C159.552 486 160 486.448 160 487ZM147 488C147.552 488 148 487.552 148 487C148 486.448 147.552 486 147 486H141C140.448 486 140 486.448 140 487C140 487.552 140.448 488 141 488H147ZM136 487C136 487.552 135.552 488 135 488H129C128.448 488 128 487.552 128 487C128 486.448 128.448 486 129 486H135C135.552 486 136 486.448 136 487ZM123 488C123.552 488 124 487.552 124 487C124 486.448 123.552 486 123 486H117C116.448 486 116 486.448 116 487C116 487.552 116.448 488 117 488H123ZM112 487C112 487.552 111.552 488 111 488H105C104.448 488 104 487.552 104 487C104 486.448 104.448 486 105 486H111C111.552 486 112 486.448 112 487ZM99 488C99.5523 488 100 487.552 100 487C100 486.448 99.5523 486 99 486H93C92.4477 486 92 486.448 92 487C92 487.552 92.4477 488 93 488H99ZM88 487C88 487.552 87.5523 488 87 488H81C80.4477 488 80 487.552 80 487C80 486.448 80.4477 486 81 486H87C87.5523 486 88 486.448 88 487ZM75 488C75.5523 488 76 487.552 76 487C76 486.448 75.5523 486 75 486H69C68.4477 486 68 486.448 68 487C68 487.552 68.4477 488 69 488H75ZM64 487C64 487.552 63.5523 488 63 488H57C56.4477 488 56 487.552 56 487C56 486.448 56.4477 486 57 486H63C63.5523 486 64 486.448 64 487ZM51 488C51.5523 488 52 487.552 52 487C52 486.448 51.5523 486 51 486H45C44.4477 486 44 486.448 44 487C44 487.552 44.4477 488 45 488H51ZM40 487C40 487.552 39.5523 488 39 488H33C32.4477 488 32 487.552 32 487C32 486.448 32.4477 486 33 486H39C39.5523 486 40 486.448 40 487ZM27 488C27.5523 488 28 487.552 28 487C28 486.448 27.5523 486 27 486H21C20.4477 486 20 486.448 20 487C20 487.552 20.4477 488 21 488H27Z" fill="#072C31"/>
<path fill-rule="evenodd" clip-rule="evenodd" d="M300 24.2433C300 21.7558 297.488 20 295 20V20C286.716 20 280 13.2843 280 5V5C280 2.51247 278.244 0 275.757 0H24.2433C21.7558 0 20 2.51246 20 5V5C20 13.2843 13.2843 20 5 20V20C2.51246 20 0 21.7558 0 24.2433V468.757C0 471.244 2.51247 473 5 473V473C13.2843 473 20 479.716 20 488C20 496.284 13.2843 503 5 503V503C2.51247 503 0 504.756 0 507.243V575.757C0 578.244 2.51245 580 5 580V580C13.2843 580 20 586.716 20 595V595C20 597.488 21.7558 600 24.2433 600H275.757C278.244 600 280 597.488 280 595V595C280 586.716 286.716 580 295 580V580C297.488 580 300 578.244 300 575.757V507.243C300 504.756 297.488 503 295 503V503C286.716 503 280 496.284 280 488C280 479.716 286.716 473 295 473V473C297.488 473 300 471.244 300 468.757V24.2433ZM280 487C280 487.552 279.552 488 279 488H273C272.448 488 272 487.552 272 487C272 486.448 272.448 486 273 486H279C279.552 486 280 486.448 280 487ZM267 488C267.552 488 268 487.552 268 487C268 486.448 267.552 486 267 486H261C260.448 486 260 486.448 260 487C260 487.552 260.448 488 261 488H267ZM256 487C256 487.552 255.552 488 255 488H249C248.448 488 248 487.552 248 487C248 486.448 248.448 486 249 486H255C255.552 486 256 486.448 256 487ZM243 488C243.552 488 244 487.552 244 487C244 486.448 243.552 486 243 486H237C236.448 486 236 486.448 236 487C236 487.552 236.448 488 237 488H243ZM232 487C232 487.552 231.552 488 231 488H225C224.448 488 224 487.552 224 487C224 486.448 224.448 486 225 486H231C231.552 486 232 486.448 232 487ZM219 488C219.552 488 220 487.552 220 487C220 486.448 219.552 486 219 486H213C212.448 486 212 486.448 212 487C212 487.552 212.448 488 213 488H219ZM208 487C208 487.552 207.552 488 207 488H201C200.448 488 200 487.552 200 487C200 486.448 200.448 486 201 486H207C207.552 486 208 486.448 208 487ZM195 488C195.552 488 196 487.552 196 487C196 486.448 195.552 486 195 486H189C188.448 486 188 486.448 188 487C188 487.552 188.448 488 189 488H195ZM184 487C184 487.552 183.552 488 183 488H177C176.448 488 176 487.552 176 487C176 486.448 176.448 486 177 486H183C183.552 486 184 486.448 184 487ZM171 488C171.552 488 172 487.552 172 487C172 486.448 171.552 486 171 486H165C164.448 486 164 486.448 164 487C164 487.552 164.448 488 165 488H171ZM160 487C160 487.552 159.552 488 159 488H153C152.448 488 152 487.552 152 487C152 486.448 152.448 486 153 486H159C159.552 486 160 486.448 160 487ZM147 488C147.552 488 148 487.552 148 487C148 486.448 147.552 486 147 486H141C140.448 486 140 486.448 140 487C140 487.552 140.448 488 141 488H147ZM136 487C136 487.552 135.552 488 135 488H129C128.448 488 128 487.552 128 487C128 486.448 128.448 486 129 486H135C135.552 486 136 486.448 136 487ZM123 488C123.552 488 124 487.552 124 487C124 486.448 123.552 486 123 486H117C116.448 486 116 486.448 116 487C116 487.552 116.448 488 117 488H123ZM112 487C112 487.552 111.552 488 111 488H105C104.448 488 104 487.552 104 487C104 486.448 104.448 486 105 486H111C111.552 486 112 486.448 112 487ZM99 488C99.5523 488 100 487.552 100 487C100 486.448 99.5523 486 99 486H93C92.4477 486 92 486.448 92 487C92 487.552 92.4477 488 93 488H99ZM88 487C88 487.552 87.5523 488 87 488H81C80.4477 488 80 487.552 80 487C80 486.448 80.4477 486 81 486H87C87.5523 486 88 486.448 88 487ZM75 488C75.5523 488 76 487.552 76 487C76 486.448 75.5523 486 75 486H69C68.4477 486 68 486.448 68 487C68 487.552 68.4477 488 69 488H75ZM64 487C64 487.552 63.5523 488 63 488H57C56.4477 488 56 487.552 56 487C56 486.448 56.4477 486 57 486H63C63.5523 486 64 486.448 64 487ZM51 488C51.5523 488 52 487.552 52 487C52 486.448 51.5523 486 51 486H45C44.4477 486 44 486.448 44 487C44 487.552 44.4477 488 45 488H51ZM40 487C40 487.552 39.5523 488 39 488H33C32.4477 488 32 487.552 32 487C32 486.448 32.4477 486 33 486H39C39.5523 486 40 486.448 40 487ZM27 488C27.5523 488 28 487.552 28 487C28 486.448 27.5523 486 27 486H21C20.4477 486 20 486.448 20 487C20 487.552 20.4477 488 21 488H27Z" fill="url(#paint0_radial_4060_521)"/>
<path fill-rule="evenodd" clip-rule="evenodd" d="M300 24.2433C300 21.7558 297.488 20 295 20V20C286.716 20 280 13.2843 280 5V5C280 2.51247 278.244 0 275.757 0H24.2433C21.7558 0 20 2.51246 20 5V5C20 13.2843 13.2843 20 5 20V20C2.51246 20 0 21.7558 0 24.2433V468.757C0 471.244 2.51247 473 5 473V473C13.2843 473 20 479.716 20 488C20 496.284 13.2843 503 5 503V503C2.51247 503 0 504.756 0 507.243V575.757C0 578.244 2.51245 580 5 580V580C13.2843 580 20 586.716 20 595V595C20 597.488 21.7558 600 24.2433 600H275.757C278.244 600 280 597.488 280 595V595C280 586.716 286.716 580 295 580V580C297.488 580 300 578.244 300 575.757V507.243C300 504.756 297.488 503 295 503V503C286.716 503 280 496.284 280 488C280 479.716 286.716 473 295 473V473C297.488 473 300 471.244 300 468.757V24.2433ZM280 487C280 487.552 279.552 488 279 488H273C272.448 488 272 487.552 272 487C272 486.448 272.448 486 273 486H279C279.552 486 280 486.448 280 487ZM267 488C267.552 488 268 487.552 268 487C268 486.448 267.552 486 267 486H261C260.448 486 260 486.448 260 487C260 487.552 260.448 488 261 488H267ZM256 487C256 487.552 255.552 488 255 488H249C248.448 488 248 487.552 248 487C248 486.448 248.448 486 249 486H255C255.552 486 256 486.448 256 487ZM243 488C243.552 488 244 487.552 244 487C244 486.448 243.552 486 243 486H237C236.448 486 236 486.448 236 487C236 487.552 236.448 488 237 488H243ZM232 487C232 487.552 231.552 488 231 488H225C224.448 488 224 487.552 224 487C224 486.448 224.448 486 225 486H231C231.552 486 232 486.448 232 487ZM219 488C219.552 488 220 487.552 220 487C220 486.448 219.552 486 219 486H213C212.448 486 212 486.448 212 487C212 487.552 212.448 488 213 488H219ZM208 487C208 487.552 207.552 488 207 488H201C200.448 488 200 487.552 200 487C200 486.448 200.448 486 201 486H207C207.552 486 208 486.448 208 487ZM195 488C195.552 488 196 487.552 196 487C196 486.448 195.552 486 195 486H189C188.448 486 188 486.448 188 487C188 487.552 188.448 488 189 488H195ZM184 487C184 487.552 183.552 488 183 488H177C176.448 488 176 487.552 176 487C176 486.448 176.448 486 177 486H183C183.552 486 184 486.448 184 487ZM171 488C171.552 488 172 487.552 172 487C172 486.448 171.552 486 171 486H165C164.448 486 164 486.448 164 487C164 487.552 164.448 488 165 488H171ZM160 487C160 487.552 159.552 488 159 488H153C152.448 488 152 487.552 152 487C152 486.448 152.448 486 153 486H159C159.552 486 160 486.448 160 487ZM147 488C147.552 488 148 487.552 148 487C148 486.448 147.552 486 147 486H141C140.448 486 140 486.448 140 487C140 487.552 140.448 488 141 488H147ZM136 487C136 487.552 135.552 488 135 488H129C128.448 488 128 487.552 128 487C128 486.448 128.448 486 129 486H135C135.552 486 136 486.448 136 487ZM123 488C123.552 488 124 487.552 124 487C124 486.448 123.552 486 123 486H117C116.448 486 116 486.448 116 487C116 487.552 116.448 488 117 488H123ZM112 487C112 487.552 111.552 488 111 488H105C104.448 488 104 487.552 104 487C104 486.448 104.448 486 105 486H111C111.552 486 112 486.448 112 487ZM99 488C99.5523 488 100 487.552 100 487C100 486.448 99.5523 486 99 486H93C92.4477 486 92 486.448 92 487C92 487.552 92.4477 488 93 488H99ZM88 487C88 487.552 87.5523 488 87 488H81C80.4477 488 80 487.552 80 487C80 486.448 80.4477 486 81 486H87C87.5523 486 88 486.448 88 487ZM75 488C75.5523 488 76 487.552 76 487C76 486.448 75.5523 486 75 486H69C68.4477 486 68 486.448 68 487C68 487.552 68.4477 488 69 488H75ZM64 487C64 487.552 63.5523 488 63 488H57C56.4477 488 56 487.552 56 487C56 486.448 56.4477 486 57 486H63C63.5523 486 64 486.448 64 487ZM51 488C51.5523 488 52 487.552 52 487C52 486.448 51.5523 486 51 486H45C44.4477 486 44 486.448 44 487C44 487.552 44.4477 488 45 488H51ZM40 487C40 487.552 39.5523 488 39 488H33C32.4477 488 32 487.552 32 487C32 486.448 32.4477 486 33 486H39C39.5523 486 40 486.448 40 487ZM27 488C27.5523 488 28 487.552 28 487C28 486.448 27.5523 486 27 486H21C20.4477 486 20 486.448 20 487C20 487.552 20.4477 488 21 488H27Z" fill="url(#paint1_radial_4060_521)"/>
<path d="M279 5C279 13.8366 286.163 21 295 21V19C287.268 19 281 12.732 281 5H279ZM24.2433 1H275.757V-1H24.2433V1ZM5 21C13.8366 21 21 13.8366 21 5H19C19 12.732 12.732 19 5 19V21ZM1 468.757V24.2433H-1V468.757H1ZM21 488C21 479.163 13.8366 472 5 472V474C12.732 474 19 480.268 19 488H21ZM5 504C13.8366 504 21 496.837 21 488H19C19 495.732 12.732 502 5 502V504ZM1 575.757V507.243H-1V575.757H1ZM21 595C21 586.163 13.8366 579 5 579V581C12.732 581 19 587.268 19 595H21ZM275.757 599H24.2433V601H275.757V599ZM281 595C281 587.268 287.268 581 295 581V579C286.163 579 279 586.163 279 595H281ZM299 507.243V575.757H301V507.243H299ZM279 488C279 496.837 286.163 504 295 504V502C287.268 502 281 495.732 281 488H279ZM295 472C286.163 472 279 479.163 279 488H281C281 480.268 287.268 474 295 474V472ZM299 24.2433V468.757H301V24.2433H299ZM279 489C280.105 489 281 488.105 281 487H279V489ZM273 489H279V487H273V489ZM271 487C271 488.105 271.895 489 273 489V487H271ZM273 485C271.895 485 271 485.895 271 487H273V485ZM279 485H273V487H279V485ZM281 487C281 485.895 280.105 485 279 485V487H281ZM267 487V489C268.105 489 269 488.105 269 487H267ZM267 487H269C269 485.895 268.105 485 267 485V487ZM261 487H267V485H261V487ZM261 487V485C259.895 485 259 485.895 259 487H261ZM261 487H259C259 488.105 259.895 489 261 489V487ZM267 487H261V489H267V487ZM255 489C256.105 489 257 488.105 257 487H255V489ZM249 489H255V487H249V489ZM247 487C247 488.105 247.895 489 249 489V487H247ZM249 485C247.895 485 247 485.895 247 487H249V485ZM255 485H249V487H255V485ZM257 487C257 485.895 256.105 485 255 485V487H257ZM243 487V489C244.105 489 245 488.105 245 487H243ZM243 487H245C245 485.895 244.105 485 243 485V487ZM237 487H243V485H237V487ZM237 487V485C235.895 485 235 485.895 235 487H237ZM237 487H235C235 488.105 235.895 489 237 489V487ZM243 487H237V489H243V487ZM231 489C232.105 489 233 488.105 233 487H231V489ZM225 489H231V487H225V489ZM223 487C223 488.105 223.895 489 225 489V487H223ZM225 485C223.895 485 223 485.895 223 487H225V485ZM231 485H225V487H231V485ZM233 487C233 485.895 232.105 485 231 485V487H233ZM219 487V489C220.105 489 221 488.105 221 487H219ZM219 487H221C221 485.895 220.105 485 219 485V487ZM213 487H219V485H213V487ZM213 487V485C211.895 485 211 485.895 211 487H213ZM213 487H211C211 488.105 211.895 489 213 489V487ZM219 487H213V489H219V487ZM207 489C208.105 489 209 488.105 209 487H207V489ZM201 489H207V487H201V489ZM199 487C199 488.105 199.895 489 201 489V487H199ZM201 485C199.895 485 199 485.895 199 487H201V485ZM207 485H201V487H207V485ZM209 487C209 485.895 208.105 485 207 485V487H209ZM195 487V489C196.105 489 197 488.105 197 487H195ZM195 487H197C197 485.895 196.105 485 195 485V487ZM189 487H195V485H189V487ZM189 487V485C187.895 485 187 485.895 187 487H189ZM189 487H187C187 488.105 187.895 489 189 489V487ZM195 487H189V489H195V487ZM183 489C184.105 489 185 488.105 185 487H183V489ZM177 489H183V487H177V489ZM175 487C175 488.105 175.895 489 177 489V487H175ZM177 485C175.895 485 175 485.895 175 487H177V485ZM183 485H177V487H183V485ZM185 487C185 485.895 184.105 485 183 485V487H185ZM171 487V489C172.105 489 173 488.105 173 487H171ZM171 487H173C173 485.895 172.105 485 171 485V487ZM165 487H171V485H165V487ZM165 487V485C163.895 485 163 485.895 163 487H165ZM165 487H163C163 488.105 163.895 489 165 489V487ZM171 487H165V489H171V487ZM159 489C160.105 489 161 488.105 161 487H159V489ZM153 489H159V487H153V489ZM151 487C151 488.105 151.895 489 153 489V487H151ZM153 485C151.895 485 151 485.895 151 487H153V485ZM159 485H153V487H159V485ZM161 487C161 485.895 160.105 485 159 485V487H161ZM147 487V489C148.105 489 149 488.105 149 487H147ZM147 487H149C149 485.895 148.105 485 147 485V487ZM141 487H147V485H141V487ZM141 487V485C139.895 485 139 485.895 139 487H141ZM141 487H139C139 488.105 139.895 489 141 489V487ZM147 487H141V489H147V487ZM135 489C136.105 489 137 488.105 137 487H135V489ZM129 489H135V487H129V489ZM127 487C127 488.105 127.895 489 129 489V487H127ZM129 485C127.895 485 127 485.895 127 487H129V485ZM135 485H129V487H135V485ZM137 487C137 485.895 136.105 485 135 485V487H137ZM123 487V489C124.105 489 125 488.105 125 487H123ZM123 487H125C125 485.895 124.105 485 123 485V487ZM117 487H123V485H117V487ZM117 487V485C115.895 485 115 485.895 115 487H117ZM117 487H115C115 488.105 115.895 489 117 489V487ZM123 487H117V489H123V487ZM111 489C112.105 489 113 488.105 113 487H111V489ZM105 489H111V487H105V489ZM103 487C103 488.105 103.895 489 105 489V487H103ZM105 485C103.895 485 103 485.895 103 487H105V485ZM111 485H105V487H111V485ZM113 487C113 485.895 112.105 485 111 485V487H113ZM99 487V489C100.105 489 101 488.105 101 487H99ZM99 487H101C101 485.895 100.105 485 99 485V487ZM93 487H99V485H93V487ZM93 487V485C91.8954 485 91 485.895 91 487H93ZM93 487H91C91 488.105 91.8954 489 93 489V487ZM99 487H93V489H99V487ZM87 489C88.1046 489 89 488.105 89 487H87V489ZM81 489H87V487H81V489ZM79 487C79 488.105 79.8954 489 81 489V487H79ZM81 485C79.8954 485 79 485.895 79 487H81V485ZM87 485H81V487H87V485ZM89 487C89 485.895 88.1046 485 87 485V487H89ZM75 487V489C76.1046 489 77 488.105 77 487H75ZM75 487H77C77 485.895 76.1046 485 75 485V487ZM69 487H75V485H69V487ZM69 487V485C67.8954 485 67 485.895 67 487H69ZM69 487H67C67 488.105 67.8954 489 69 489V487ZM75 487H69V489H75V487ZM63 489C64.1046 489 65 488.105 65 487H63V489ZM57 489H63V487H57V489ZM55 487C55 488.105 55.8954 489 57 489V487H55ZM57 485C55.8954 485 55 485.895 55 487H57V485ZM63 485H57V487H63V485ZM65 487C65 485.895 64.1046 485 63 485V487H65ZM51 487V489C52.1046 489 53 488.105 53 487H51ZM51 487H53C53 485.895 52.1046 485 51 485V487ZM45 487H51V485H45V487ZM45 487V485C43.8954 485 43 485.895 43 487H45ZM45 487H43C43 488.105 43.8954 489 45 489V487ZM51 487H45V489H51V487ZM39 489C40.1046 489 41 488.105 41 487H39V489ZM33 489H39V487H33V489ZM31 487C31 488.105 31.8954 489 33 489V487H31ZM33 485C31.8954 485 31 485.895 31 487H33V485ZM39 485H33V487H39V485ZM41 487C41 485.895 40.1046 485 39 485V487H41ZM27 487V489C28.1046 489 29 488.105 29 487H27ZM27 487H29C29 485.895 28.1046 485 27 485V487ZM21 487H27V485H21V487ZM21 487V485C19.8954 485 19 485.895 19 487H21ZM21 487H19C19 488.105 19.8954 489 21 489V487ZM27 487H21V489H27V487ZM295 474C296.467 474 297.938 473.486 299.057 472.593C300.183 471.693 301 470.363 301 468.757H299C299 469.638 298.56 470.43 297.809 471.03C297.05 471.636 296.02 472 295 472V474ZM301 507.243C301 505.637 300.183 504.307 299.057 503.407C297.938 502.514 296.467 502 295 502V504C296.02 504 297.05 504.364 297.809 504.97C298.56 505.57 299 506.362 299 507.243H301ZM295 581C296.467 581 297.938 580.486 299.057 579.593C300.183 578.693 301 577.363 301 575.757H299C299 576.638 298.56 577.43 297.809 578.03C297.05 578.636 296.02 579 295 579V581ZM275.757 601C277.363 601 278.693 600.183 279.593 599.057C280.486 597.938 281 596.467 281 595H279C279 596.02 278.636 597.05 278.03 597.809C277.43 598.56 276.638 599 275.757 599V601ZM19 595C19 596.467 19.5139 597.938 20.4074 599.057C21.307 600.183 22.6366 601 24.2433 601V599C23.3625 599 22.5704 598.56 21.9703 597.809C21.364 597.05 21 596.02 21 595H19ZM-1 575.757C-1 577.363 -0.183389 578.693 0.943162 579.593C2.06205 580.486 3.53284 581 5 581V579C3.97961 579 2.9504 578.636 2.19117 578.03C1.43961 577.43 1 576.638 1 575.757H-1ZM5 19C3.53285 19 2.06205 19.5139 0.943165 20.4074C-0.183384 21.307 -1 22.6366 -1 24.2433H1C1 23.3625 1.43962 22.5704 2.19118 21.9703C2.95041 21.364 3.97962 21 5 21V19ZM24.2433 -1C22.6366 -1 21.307 -0.183383 20.4074 0.943168C19.5139 2.06206 19 3.53285 19 5H21C21 3.97961 21.364 2.95041 21.9703 2.19118C22.5704 1.43961 23.3625 1 24.2433 1V-1ZM-1 468.757C-1 470.363 -0.183381 471.693 0.943168 472.593C2.06205 473.486 3.53285 474 5 474V472C3.97962 472 2.95041 471.636 2.19118 471.03C1.43961 470.43 1 469.638 1 468.757H-1ZM281 5C281 3.53285 280.486 2.06206 279.593 0.94317C278.693 -0.18338 277.363 -1 275.757 -1V1C276.638 1 277.43 1.43961 278.03 2.19118C278.636 2.95041 279 3.97962 279 5H281ZM5 502C3.53285 502 2.06205 502.514 0.943168 503.407C-0.183381 504.307 -1 505.637 -1 507.243H1C1 506.363 1.43961 505.57 2.19118 504.97C2.95041 504.364 3.97962 504 5 504V502ZM295 21C296.02 21 297.05 21.364 297.809 21.9703C298.56 22.5704 299 23.3625 299 24.2433H301C301 22.6366 300.183 21.307 299.057 20.4074C297.938 19.5139 296.467 19 295 19V21Z" fill="#24A0B5" mask="url(#path-1-inside-1_4060_521)"/>
<rect x="19.5" y="19.5" width="261" height="447" rx="16.5" fill="#031E21" fill-opacity="0.1"/>
<rect x="19.5" y="19.5" width="261" height="447" rx="16.5" stroke="#24A0B5"/>
<path d="M37.0692 570.491V579.218H36.0124V571.598H35.9613L33.8306 573.013V571.939L36.0124 570.491H37.0692Z" fill="white"/>
<path d="M61.6372 512H59.4419V568.241H61.6372V512Z" fill="white"/>
<path d="M66.028 512H63.8326V568.241H66.028V512Z" fill="white"/>
<path d="M34.1953 512H32V568.241H34.1953V512Z" fill="white"/>
<path d="M38.5861 512H36.3907V568.241H38.5861V512Z" fill="white"/>
<path d="M49.5628 512H40.7814V563.128H49.5628V512Z" fill="white"/>
<path d="M56.1489 512H52.8558V563H56.1489V512Z" fill="white"/>
<path d="M72.6139 512H70.4186V563.128H72.6139V512Z" fill="white"/>
<path d="M81.3953 512H77.0046V563.128H81.3953V512Z" fill="white"/>
<path d="M96.7627 512H94.5674V563.128H96.7627V512Z" fill="white"/>
<path d="M107.739 512H101.153V563.128H107.739V512Z" fill="white"/>
<path d="M112.13 512H109.935V563.128H112.13V512Z" fill="white"/>
<path d="M118.716 512H114.326V563.128H118.716V512Z" fill="white"/>
<path d="M127.498 512H125.302V563.128H127.498V512Z" fill="white"/>
<path d="M138.474 512H136.279V563.128H138.474V512Z" fill="white"/>
<path d="M142.865 512H140.67V563.128H142.865V512Z" fill="white"/>
<path d="M149.451 512H147.256V563.128H149.451V512Z" fill="white"/>
<path d="M158.232 512H156.037V563.128H158.232V512Z" fill="white"/>
<path d="M90.9086 579.218V578.451L93.7893 575.297C94.1273 574.928 94.4057 574.607 94.6245 574.334C94.8432 574.059 95.0052 573.8 95.1103 573.559C95.2182 573.314 95.2722 573.059 95.2722 572.792C95.2722 572.485 95.1984 572.219 95.0506 571.995C94.9057 571.77 94.7069 571.597 94.454 571.475C94.2012 571.353 93.9171 571.292 93.6018 571.292C93.2665 571.292 92.9739 571.361 92.7239 571.5C92.4768 571.637 92.285 571.829 92.1486 572.076C92.0151 572.323 91.9484 572.613 91.9484 572.945H90.9427C90.9427 572.434 91.0606 571.985 91.2964 571.598C91.5322 571.212 91.8532 570.911 92.2594 570.695C92.6685 570.479 93.1273 570.371 93.6359 570.371C94.1472 570.371 94.6003 570.479 94.9952 570.695C95.3901 570.911 95.6998 571.202 95.9242 571.569C96.1486 571.935 96.2609 572.343 96.2609 572.792C96.2609 573.113 96.2026 573.427 96.0861 573.733C95.9725 574.037 95.7736 574.377 95.4895 574.752C95.2083 575.124 94.8177 575.579 94.3177 576.116L92.3574 578.212V578.28H96.4143V579.218H90.9086ZM101.123 579.337C100.561 579.337 100.059 579.241 99.6188 579.047C99.1813 578.854 98.8333 578.586 98.5748 578.242C98.3191 577.895 98.1799 577.493 98.1572 577.036H99.231C99.2538 577.317 99.3503 577.56 99.5208 577.765C99.6913 577.966 99.9143 578.123 100.19 578.233C100.465 578.344 100.771 578.4 101.106 578.4C101.481 578.4 101.813 578.334 102.103 578.204C102.393 578.073 102.62 577.891 102.785 577.658C102.95 577.425 103.032 577.155 103.032 576.848C103.032 576.527 102.953 576.245 102.794 576C102.634 575.753 102.401 575.56 102.095 575.421C101.788 575.282 101.413 575.212 100.97 575.212H100.271V574.275H100.97C101.316 574.275 101.62 574.212 101.882 574.087C102.146 573.962 102.352 573.786 102.499 573.559C102.65 573.331 102.725 573.064 102.725 572.758C102.725 572.462 102.66 572.205 102.529 571.986C102.399 571.767 102.214 571.597 101.975 571.475C101.74 571.353 101.461 571.292 101.14 571.292C100.839 571.292 100.555 571.347 100.288 571.458C100.024 571.566 99.8077 571.723 99.6401 571.931C99.4725 572.135 99.3816 572.383 99.3674 572.672H98.3447C98.3617 572.215 98.4995 571.814 98.758 571.471C99.0165 571.124 99.3546 570.854 99.7722 570.661C100.193 570.468 100.654 570.371 101.157 570.371C101.697 570.371 102.16 570.481 102.546 570.699C102.933 570.915 103.23 571.201 103.437 571.556C103.644 571.911 103.748 572.294 103.748 572.706C103.748 573.198 103.619 573.617 103.36 573.964C103.105 574.31 102.757 574.55 102.316 574.684V574.752C102.867 574.843 103.298 575.077 103.607 575.455C103.917 575.83 104.072 576.294 104.072 576.848C104.072 577.323 103.943 577.749 103.684 578.127C103.428 578.502 103.079 578.797 102.636 579.013C102.193 579.229 101.688 579.337 101.123 579.337ZM105.61 577.428V576.559L109.446 570.491H110.076V571.837H109.65L106.752 576.422V576.491H111.917V577.428H105.61ZM109.718 579.218V577.164V576.759V570.491H110.724V579.218H109.718ZM116.241 579.337C115.741 579.337 115.291 579.238 114.89 579.039C114.49 578.84 114.169 578.567 113.927 578.221C113.686 577.874 113.554 577.479 113.531 577.036H114.554C114.594 577.431 114.773 577.758 115.091 578.016C115.412 578.272 115.795 578.4 116.241 578.4C116.599 578.4 116.917 578.316 117.196 578.148C117.477 577.981 117.697 577.75 117.856 577.458C118.018 577.162 118.099 576.829 118.099 576.456C118.099 576.076 118.015 575.736 117.848 575.438C117.683 575.137 117.456 574.9 117.166 574.726C116.876 574.553 116.545 574.465 116.173 574.462C115.906 574.459 115.632 574.5 115.351 574.586C115.069 574.668 114.838 574.775 114.656 574.905L113.667 574.786L114.196 570.491H118.73V571.428H115.082L114.775 574.002H114.827C115.006 573.86 115.23 573.742 115.5 573.648C115.77 573.554 116.051 573.508 116.344 573.508C116.878 573.508 117.354 573.635 117.771 573.891C118.192 574.144 118.521 574.491 118.76 574.931C119.001 575.371 119.122 575.874 119.122 576.439C119.122 576.996 118.997 577.493 118.747 577.931C118.5 578.366 118.159 578.709 117.724 578.962C117.29 579.212 116.795 579.337 116.241 579.337ZM123.713 579.337C123.355 579.331 122.997 579.263 122.639 579.133C122.281 579.002 121.954 578.782 121.659 578.472C121.363 578.16 121.126 577.738 120.947 577.206C120.768 576.672 120.678 576.002 120.678 575.195C120.678 574.422 120.751 573.738 120.896 573.141C121.041 572.542 121.251 572.037 121.526 571.628C121.802 571.216 122.134 570.904 122.524 570.691C122.916 570.478 123.357 570.371 123.849 570.371C124.338 570.371 124.772 570.469 125.153 570.665C125.536 570.858 125.849 571.128 126.09 571.475C126.332 571.821 126.488 572.221 126.559 572.672H125.519C125.423 572.28 125.235 571.955 124.957 571.696C124.678 571.438 124.309 571.309 123.849 571.309C123.173 571.309 122.64 571.603 122.251 572.191C121.865 572.779 121.67 573.604 121.667 574.667H121.735C121.894 574.425 122.083 574.219 122.302 574.049C122.524 573.875 122.768 573.742 123.035 573.648C123.302 573.554 123.585 573.508 123.883 573.508C124.383 573.508 124.84 573.633 125.255 573.883C125.67 574.13 126.002 574.472 126.252 574.91C126.502 575.344 126.627 575.843 126.627 576.405C126.627 576.945 126.507 577.439 126.265 577.888C126.024 578.334 125.684 578.689 125.247 578.954C124.812 579.215 124.301 579.343 123.713 579.337ZM123.713 578.4C124.071 578.4 124.392 578.31 124.676 578.131C124.963 577.952 125.188 577.712 125.353 577.411C125.521 577.11 125.605 576.775 125.605 576.405C125.605 576.044 125.524 575.716 125.362 575.421C125.203 575.123 124.982 574.885 124.701 574.709C124.423 574.533 124.105 574.445 123.747 574.445C123.477 574.445 123.225 574.499 122.992 574.607C122.759 574.712 122.555 574.857 122.379 575.042C122.205 575.226 122.069 575.438 121.97 575.677C121.87 575.912 121.821 576.161 121.821 576.422C121.821 576.769 121.901 577.093 122.063 577.394C122.228 577.695 122.453 577.938 122.737 578.123C123.024 578.307 123.349 578.4 123.713 578.4ZM128.576 579.218L132.479 571.496V571.428H127.979V570.491H133.57V571.479L129.684 579.218H128.576Z" fill="white"/>
<path d="M162.623 512H160.428V568.241H162.623V512Z" fill="white"/>
<path d="M167.014 512H164.819V568.241H167.014V512Z" fill="white"/>
<path d="M171.405 512H169.209V563.128H171.405V512Z" fill="white"/>
<path d="M177.991 512H175.795V563.128H177.991V512Z" fill="white"/>
<path d="M191.163 512H184.577V563.128H191.163V512Z" fill="white"/>
<path d="M195.554 512H193.358V563.128H195.554V512Z" fill="white"/>
<path d="M204.335 512H199.944V563.128H204.335V512Z" fill="white"/>
<path d="M213.116 512H208.726V563.128H213.116V512Z" fill="white"/>
<path d="M221.898 512H215.312V563.128H221.898V512Z" fill="white"/>
<path d="M228.484 512H226.288V563.128H228.484V512Z" fill="white"/>
<path d="M235.07 512H230.679V563.128H235.07V512Z" fill="white"/>
<path d="M241.656 512H237.265V563.128H241.656V512Z" fill="white"/>
<path d="M248.242 512H246.047V563.128H248.242V512Z" fill="white"/>
<path d="M252.633 512H250.437V563.128H252.633V512Z" fill="white"/>
<path d="M197.653 579.337C197.068 579.337 196.551 579.233 196.102 579.026C195.656 578.816 195.308 578.527 195.058 578.161C194.808 577.792 194.684 577.371 194.687 576.9C194.684 576.53 194.757 576.189 194.905 575.877C195.052 575.562 195.254 575.299 195.51 575.089C195.768 574.875 196.057 574.741 196.375 574.684V574.633C195.957 574.525 195.625 574.29 195.378 573.929C195.13 573.566 195.008 573.152 195.011 572.689C195.008 572.246 195.12 571.85 195.348 571.5C195.575 571.151 195.887 570.875 196.285 570.674C196.686 570.472 197.142 570.371 197.653 570.371C198.159 570.371 198.61 570.472 199.008 570.674C199.406 570.875 199.718 571.151 199.946 571.5C200.176 571.85 200.292 572.246 200.295 572.689C200.292 573.152 200.166 573.566 199.916 573.929C199.669 574.29 199.341 574.525 198.932 574.633V574.684C199.247 574.741 199.531 574.875 199.784 575.089C200.037 575.299 200.238 575.562 200.389 575.877C200.539 576.189 200.616 576.53 200.619 576.9C200.616 577.371 200.488 577.792 200.235 578.161C199.985 578.527 199.637 578.816 199.191 579.026C198.748 579.233 198.235 579.337 197.653 579.337ZM197.653 578.4C198.048 578.4 198.389 578.336 198.676 578.208C198.963 578.08 199.184 577.9 199.341 577.667C199.497 577.434 199.576 577.161 199.579 576.848C199.576 576.519 199.491 576.228 199.324 575.975C199.156 575.722 198.927 575.523 198.637 575.378C198.351 575.233 198.022 575.161 197.653 575.161C197.281 575.161 196.949 575.233 196.656 575.378C196.366 575.523 196.137 575.722 195.97 575.975C195.805 576.228 195.724 576.519 195.727 576.848C195.724 577.161 195.799 577.434 195.953 577.667C196.109 577.9 196.332 578.08 196.622 578.208C196.912 578.336 197.255 578.4 197.653 578.4ZM197.653 574.258C197.966 574.258 198.243 574.195 198.484 574.07C198.728 573.945 198.92 573.77 199.059 573.546C199.199 573.321 199.27 573.059 199.272 572.758C199.27 572.462 199.2 572.205 199.064 571.986C198.927 571.765 198.738 571.594 198.497 571.475C198.255 571.353 197.974 571.292 197.653 571.292C197.326 571.292 197.041 571.353 196.797 571.475C196.552 571.594 196.363 571.765 196.23 571.986C196.096 572.205 196.031 572.462 196.034 572.758C196.031 573.059 196.098 573.321 196.234 573.546C196.373 573.77 196.565 573.945 196.809 574.07C197.054 574.195 197.335 574.258 197.653 574.258ZM205.031 570.371C205.389 570.374 205.747 570.442 206.104 570.576C206.462 570.709 206.789 570.931 207.085 571.241C207.38 571.547 207.617 571.966 207.796 572.498C207.975 573.029 208.065 573.695 208.065 574.496C208.065 575.272 207.991 575.961 207.843 576.563C207.698 577.162 207.488 577.668 207.212 578.08C206.94 578.492 206.607 578.804 206.215 579.017C205.826 579.231 205.386 579.337 204.894 579.337C204.406 579.337 203.97 579.241 203.586 579.047C203.205 578.851 202.893 578.58 202.648 578.233C202.407 577.884 202.252 577.479 202.184 577.019H203.224C203.318 577.419 203.504 577.75 203.782 578.012C204.063 578.27 204.434 578.4 204.894 578.4C205.568 578.4 206.099 578.106 206.488 577.517C206.88 576.929 207.076 576.098 207.076 575.025H207.008C206.849 575.263 206.66 575.469 206.441 575.642C206.222 575.816 205.979 575.949 205.712 576.043C205.445 576.137 205.161 576.184 204.86 576.184C204.36 576.184 203.901 576.06 203.484 575.813C203.069 575.563 202.737 575.221 202.487 574.786C202.239 574.348 202.116 573.848 202.116 573.286C202.116 572.752 202.235 572.263 202.474 571.82C202.715 571.374 203.053 571.019 203.488 570.755C203.925 570.491 204.44 570.363 205.031 570.371ZM205.031 571.309C204.673 571.309 204.35 571.398 204.063 571.577C203.779 571.753 203.553 571.992 203.386 572.293C203.221 572.591 203.139 572.922 203.139 573.286C203.139 573.65 203.218 573.981 203.377 574.279C203.539 574.574 203.759 574.81 204.038 574.986C204.319 575.16 204.639 575.246 204.997 575.246C205.266 575.246 205.518 575.194 205.751 575.089C205.984 574.981 206.187 574.834 206.36 574.65C206.536 574.462 206.674 574.25 206.773 574.015C206.873 573.776 206.923 573.527 206.923 573.269C206.923 572.928 206.84 572.608 206.675 572.31C206.514 572.012 206.289 571.77 206.002 571.586C205.718 571.401 205.394 571.309 205.031 571.309ZM212.809 570.491V579.218H211.752V571.598H211.701L209.57 573.013V571.939L211.752 570.491H212.809ZM218.165 579.337C217.523 579.337 216.976 579.162 216.525 578.813C216.073 578.461 215.728 577.951 215.489 577.283C215.25 576.613 215.131 575.803 215.131 574.854C215.131 573.911 215.25 573.106 215.489 572.438C215.731 571.767 216.077 571.256 216.529 570.904C216.983 570.549 217.529 570.371 218.165 570.371C218.802 570.371 219.346 570.549 219.797 570.904C220.252 571.256 220.598 571.767 220.837 572.438C221.079 573.106 221.199 573.911 221.199 574.854C221.199 575.803 221.08 576.613 220.841 577.283C220.603 577.951 220.258 578.461 219.806 578.813C219.354 579.162 218.807 579.337 218.165 579.337ZM218.165 578.4C218.802 578.4 219.296 578.093 219.648 577.479C220 576.866 220.177 575.991 220.177 574.854C220.177 574.098 220.096 573.455 219.934 572.924C219.775 572.392 219.544 571.988 219.243 571.709C218.945 571.431 218.586 571.292 218.165 571.292C217.535 571.292 217.042 571.603 216.686 572.225C216.331 572.844 216.154 573.721 216.154 574.854C216.154 575.61 216.233 576.252 216.392 576.78C216.552 577.309 216.78 577.711 217.079 577.986C217.38 578.262 217.742 578.4 218.165 578.4ZM222.819 579.218V578.451L225.699 575.297C226.037 574.928 226.316 574.607 226.535 574.334C226.753 574.059 226.915 573.8 227.02 573.559C227.128 573.314 227.182 573.059 227.182 572.792C227.182 572.485 227.108 572.219 226.961 571.995C226.816 571.77 226.617 571.597 226.364 571.475C226.111 571.353 225.827 571.292 225.512 571.292C225.177 571.292 224.884 571.361 224.634 571.5C224.387 571.637 224.195 571.829 224.059 572.076C223.925 572.323 223.858 572.613 223.858 572.945H222.853C222.853 572.434 222.971 571.985 223.206 571.598C223.442 571.212 223.763 570.911 224.169 570.695C224.579 570.479 225.037 570.371 225.546 570.371C226.057 570.371 226.51 570.479 226.905 570.695C227.3 570.911 227.61 571.202 227.834 571.569C228.059 571.935 228.171 572.343 228.171 572.792C228.171 573.113 228.113 573.427 227.996 573.733C227.883 574.037 227.684 574.377 227.4 574.752C227.118 575.124 226.728 575.579 226.228 576.116L224.267 578.212V578.28H228.324V579.218H222.819ZM232.982 579.337C232.624 579.331 232.266 579.263 231.908 579.133C231.55 579.002 231.223 578.782 230.928 578.472C230.633 578.16 230.395 577.738 230.216 577.206C230.037 576.672 229.948 576.002 229.948 575.195C229.948 574.422 230.02 573.738 230.165 573.141C230.31 572.542 230.52 572.037 230.796 571.628C231.071 571.216 231.404 570.904 231.793 570.691C232.185 570.478 232.627 570.371 233.118 570.371C233.607 570.371 234.042 570.469 234.422 570.665C234.806 570.858 235.118 571.128 235.36 571.475C235.601 571.821 235.758 572.221 235.829 572.672H234.789C234.692 572.28 234.505 571.955 234.226 571.696C233.948 571.438 233.579 571.309 233.118 571.309C232.442 571.309 231.91 571.603 231.52 572.191C231.134 572.779 230.939 573.604 230.936 574.667H231.005C231.164 574.425 231.353 574.219 231.571 574.049C231.793 573.875 232.037 573.742 232.304 573.648C232.571 573.554 232.854 573.508 233.152 573.508C233.652 573.508 234.11 573.633 234.525 573.883C234.939 574.13 235.272 574.472 235.522 574.91C235.772 575.344 235.897 575.843 235.897 576.405C235.897 576.945 235.776 577.439 235.535 577.888C235.293 578.334 234.954 578.689 234.516 578.954C234.081 579.215 233.57 579.343 232.982 579.337ZM232.982 578.4C233.34 578.4 233.661 578.31 233.945 578.131C234.232 577.952 234.458 577.712 234.623 577.411C234.79 577.11 234.874 576.775 234.874 576.405C234.874 576.044 234.793 575.716 234.631 575.421C234.472 575.123 234.252 574.885 233.971 574.709C233.692 574.533 233.374 574.445 233.016 574.445C232.746 574.445 232.495 574.499 232.262 574.607C232.029 574.712 231.824 574.857 231.648 575.042C231.475 575.226 231.338 575.438 231.239 575.677C231.14 575.912 231.09 576.161 231.09 576.422C231.09 576.769 231.171 577.093 231.333 577.394C231.498 577.695 231.722 577.938 232.006 578.123C232.293 578.307 232.618 578.4 232.982 578.4Z" fill="white"/>
<path d="M263.609 512H261.414V568.241H263.609V512Z" fill="white"/>
<path d="M268 512H265.805V568.241H268V512Z" fill="white"/>
</g>
<defs>
<radialGradient id="paint0_radial_4060_521" cx="0" cy="0" r="1" gradientUnits="userSpaceOnUse" gradientTransform="translate(150 -6.2645e-06) rotate(90) scale(83.5 150)">
<stop stop-color="#24A0B5" stop-opacity="0.5"/>
<stop offset="1" stop-color="#24A0B5" stop-opacity="0"/>
</radialGradient>
<radialGradient id="paint1_radial_4060_521" cx="0" cy="0" r="1" gradientUnits="userSpaceOnUse" gradientTransform="translate(150 619.5) rotate(-90) scale(217 150)">
<stop stop-color="#24A0B5" stop-opacity="0.5"/>
<stop offset="1" stop-color="#24A0B5" stop-opacity="0"/>
</radialGradient>
<clipPath id="clip0_4060_521">
<rect width="300" height="600" fill="white"/>
</clipPath>
</defs>
</svg>
