<svg width="24" height="24" viewBox="0 0 24 24" fill="none" xmlns="http://www.w3.org/2000/svg">
<path d="M9 3.5V20.5M2.464 9.344C2.216 9.344 1.989 9.142 2 8.879C2.067 7.337 2.255 6.333 2.78 5.539C3.07946 5.08653 3.45501 4.68933 3.89 4.365C5.055 3.5 6.7 3.5 9.992 3.5H14.006C17.298 3.5 18.943 3.5 20.11 4.365C20.541 4.685 20.917 5.082 21.219 5.539C21.744 6.333 21.932 7.337 21.999 8.879C22.01 9.142 21.783 9.344 21.534 9.344C20.148 9.344 19.024 10.533 19.024 12C19.024 13.467 20.148 14.656 21.534 14.656C21.783 14.656 22.01 14.858 21.999 15.122C21.932 16.663 21.744 17.667 21.219 18.462C20.9195 18.9141 20.5439 19.311 20.109 19.635C18.943 20.5 17.298 20.5 14.006 20.5H9.993C6.701 20.5 5.056 20.5 3.889 19.635C3.45437 19.3106 3.07916 18.9134 2.78 18.461C2.255 17.667 2.067 16.663 2 15.121C1.989 14.858 2.216 14.656 2.464 14.656C3.85 14.656 4.974 13.467 4.974 12C4.974 10.533 3.85 9.344 2.464 9.344Z" stroke="white" stroke-width="1.5" stroke-linecap="round" stroke-linejoin="round"/>
</svg>
